<?xml version="1.0" encoding="UTF-8"?>
<svg id="Layer_2" data-name="Layer 2" xmlns="http://www.w3.org/2000/svg" viewBox="0 0 171.71 24.67">
  <g id="Layer_1-2" data-name="Layer 1">
    <g>
      <path d="M0,4.72c.88.55.82,1.44.82,2.33h.05v10.69c0,.89.05,1.77-.82,2.33v4.21h8.87v-4.21c-.88-.55-.77-1.44-.77-2.33V7.05c0-.89-.11-1.77.77-2.33V.51H0v4.21Z"/>
      <path d="M26.93,18.07v-6.54c0-1.5-.16-2.77-1.31-3.93-.66-.66-1.81-1.11-3.17-1.16-1.35-.05-2.87.22-4.6,1.41v-1.02h-7v3.93c.82.61.82,1.22.82,2.16v5.32c0,.89.05,1.72-.82,2.22v3.93h7.99v-3.93c-.88-.5-.77-1.44-.77-2.33v-6.54c1.09-.5,1.81,0,2.24.66.27.61.16,1.44.16,1.55v5.1c0,1.77,0,3.66.38,5.43h6.84v-3.93c-.82-.5-.77-1.44-.77-2.33Z"/>
      <path d="M44.77,18.46V.51h-7.17v3.88c.88.61.71,1.44.71,2.38v.94c-1.15-.89-2.57-1.27-3.83-1.27-3.28,0-5.14,1.61-5.14,5.43v6.54c0,3.82.93,6.21,4.82,6.21,1.53,0,3.06-.44,4.27-1.39v1.11h7.11v-3.93c-.88-.61-.77-1.44-.77-1.94ZM38.2,11.59v7.81c-.33.22-.82.33-1.15.33-1.31,0-1.31-1.55-1.31-2.49v-3.88c0-1,0-2.16,1.31-2.16.44,0,.88.17,1.2.39h-.05Z"/>
      <path d="M62.5,17.96V6.72h-7.28v3.93c.88.55.82,1.44.82,2.33v6.43c-.33.22-.6.33-1.04.33-1.48,0-1.37-1.72-1.37-2.77v-6.93c0-1.11-.11-2.22-.38-3.32h-6.9v3.93c.82.66.77,1.39.77,2.33h.05v4.82c0,1.5-.16,3.38.6,4.71.77,1.5,2.46,2.05,4.05,2.05,1.7,0,3.12-.44,4.49-1.5v1.16h7.01v-3.93c-.88-.55-.82-1.44-.82-2.33Z"/>
      <path d="M81.21,1.73c-1.64-1.27-4.32-1.22-6.35-1.22h-9.58v4.21c.88.55.77,1.44.77,2.33h-.05v10.64c0,.89.11,1.77-.77,2.33v4.21h8.98v-4.21c-.88-.55-.82-1.44-.82-2.6h2.63c6.02,0,7.5-2.77,7.5-7.31v-1.88c0-.61.38-4.38-2.3-6.48ZM73.99,12.42h-.66v-6.98h.66c2.19,0,2.08,1.22,2.08,3.49s.11,3.49-2.08,3.49Z"/>
      <path d="M91.72,18.02V.51h-7.28v3.88c.88.55.82,1.44.82,2.33v11.41c0,.89.05,1.66-.82,2.22v3.93h8.04v-3.93c-.88-.5-.77-1.44-.77-2.33Z"/>
      <path d="M109.29,17.91v-4.88c.05-2.05,0-3.88-1.81-5.32-1.42-1.11-3.61-1.39-5.36-1.39-2.68,0-5.53.55-7.72,2.16v4.32h6.07v-.72c0-.89.22-1.72,1.26-1.72.88,0,1.09.83,1.09,1.72v.61l-4.16,1.39c-2.9.94-4.98,1.99-4.98,5.49,0,3.05,1.91,4.99,4.93,4.99,1.75,0,3.12-.5,4.49-1.66v1.33h7.01v-3.93c-.93-.66-.82-1.44-.82-2.38ZM102.83,19.24c-.6.44-1.2.66-1.75.66-.55.06-.93-.55-.93-1.11,0-1.22,1.53-1.5,2.68-1.99v2.44Z"/>
      <path d="M118.32,1.51l-6.46,1.88v3.38h-.82v3.99h.82v8.2c0,1.55-.11,3.16,1.09,4.38,1.09,1.11,2.85,1.33,4.27,1.22l3.23-.28v-3.99c-2.13-.22-2.13-.94-2.13-2.83v-6.7h2.13v-3.99h-2.13V1.51Z"/>
      <path d="M129.43,6.44c-6.07,0-7.66,1.94-7.55,6.7v4.71c0,2.11.11,4.04,1.91,5.43,1.42,1.11,4.1,1.55,6.73,1.33,2.63-.22,5.31-1,6.73-2.27v-4.38h-6.46v.66c0,.89-.11,1.94-1.2,1.94s-1.2-1.11-1.2-1.99v-1.61h8.87v-4.16c.11-4.27-1.48-6.43-7.83-6.37ZM130.85,12.92h-2.52v-.66c0-.72.11-1.77,1.26-1.77s1.26,1.05,1.26,1.77v.66Z"/>
      <path d="M147.32,13.36c-.93-.22-2.57-.44-2.57-1.66,0-.66.6-1.16,1.26-1.16,1.04,0,1.26.89,1.26,1.72v.61h6.02v-4.16c-2.19-1.72-5.04-2.27-7.77-2.27-1.59,0-3.61.28-4.98,1.16-1.59,1.05-2.02,2.55-2.02,4.38,0,3.82,2.68,4.38,5.8,5.1,1.15.28,3.12.5,3.12,2.11,0,.72-.55,1.33-1.2,1.33-1.37,0-1.26-1.39-1.26-2.38h-.05v-.39h-6.07v4.54c1.81,1.77,5.09,2.33,7.55,2.33,3.94,0,7.39-1.16,7.39-5.71,0-4.27-3.07-4.82-6.46-5.54Z"/>
      <path d="M171.33,5.17c-.25-.76-.61-1.45-1.07-2.08-.46-.63-1.01-1.18-1.64-1.64-.63-.46-1.32-.82-2.07-1.08-.75-.25-1.55-.38-2.38-.38s-1.63.13-2.39.38-1.45.61-2.08,1.08c-.63.46-1.17,1.01-1.64,1.64-.46.63-.82,1.32-1.08,2.08-.25.76-.38,1.55-.38,2.39s.13,1.63.38,2.38c.25.75.61,1.45,1.08,2.07.46.63,1.01,1.17,1.64,1.64s1.32.82,2.08,1.08c.76.25,1.55.38,2.39.38s1.63-.13,2.38-.38c.75-.25,1.45-.61,2.07-1.08s1.17-1.01,1.64-1.64c.46-.63.82-1.32,1.07-2.07.25-.75.38-1.55.38-2.38s-.13-1.63-.38-2.39ZM170.22,9.57c-.21.64-.52,1.22-.91,1.75s-.85.99-1.38,1.38c-.53.39-1.12.69-1.75.91-.64.21-1.31.32-2.01.32s-1.38-.11-2.01-.32c-.64-.21-1.22-.52-1.75-.91-.53-.39-.99-.85-1.38-1.38s-.69-1.12-.9-1.75c-.21-.64-.32-1.31-.32-2.01s.11-1.38.32-2.02c.21-.64.52-1.22.9-1.75.39-.53.85-.99,1.38-1.38.53-.39,1.12-.7,1.75-.91.64-.21,1.31-.32,2.01-.32s1.37.11,2.01.32c.64.21,1.22.52,1.75.91s.99.85,1.38,1.38c.39.53.69,1.12.91,1.76.22.64.32,1.31.32,2.02s-.11,1.37-.32,2.01Z"/>
      <path d="M165.95,8.51c.45-.2.79-.5,1.03-.89s.36-.86.36-1.41-.12-1.02-.35-1.42c-.24-.4-.57-.71-1.01-.93-.44-.22-.96-.33-1.57-.33h-3.29v8.05h1.91v-2.77h1.03l1.48,2.77h2.09l-1.68-3.07s0,0,0,0ZM163.02,5.08h.98c.3,0,.55.04.75.13.2.08.35.21.46.38.1.17.15.38.15.63s-.05.45-.15.62-.25.28-.45.36c-.2.08-.45.12-.75.12h-.99v-2.22Z"/>
    </g>
  </g>
</svg>